
<svg version="1.0" xmlns="http://www.w3.org/2000/svg"
 width="32" height="32" viewBox="0 0 16.000000 16.000000"
 preserveAspectRatio="xMidYMid meet">

<g transform="translate(0.000000,16.000000) scale(0.100000,-0.100000)"
fill="#000000" stroke="none">
<path d="M84 149 c-3 -6 7 -25 25 -42 23 -24 33 -29 42 -20 10 10 6 15 -14 22
-15 6 -27 17 -27 25 0 20 -17 29 -26 15z"/>
<path d="M130 130 c-8 -5 -10 -10 -5 -10 6 0 17 5 25 10 8 5 11 10 5 10 -5 0
-17 -5 -25 -10z"/>
<path d="M22 118 c-7 -7 -12 -34 -12 -60 l0 -48 48 0 c76 0 95 40 45 92 -28
30 -61 36 -81 16z m28 -52 c0 -3 -4 -8 -10 -11 -5 -3 -10 -1 -10 4 0 6 5 11
10 11 6 0 10 -2 10 -4z m20 -26 c0 -5 -5 -10 -11 -10 -5 0 -7 5 -4 10 3 6 8
10 11 10 2 0 4 -4 4 -10z"/>
</g>
</svg>
