<svg xmlns="http://www.w3.org/2000/svg" aria-hidden="true" style="position:absolute;width:0;height:0;overflow:hidden">
  <defs>

    <symbol id="icon-check" viewBox="0 0 32 32">
      <path fill="none" stroke="#e8e8e2" stroke-linecap="round" stroke-linejoin="round" stroke-width="3.556" d="M26.667 8 12 22.667 5.333 16" style="stroke:var(--color1, #e8e8e2)"/>
    </symbol>

    <symbol id="icon-down-arrow" viewBox="0 0 32 32">
      <path stroke-linecap="round" stroke-linejoin="round" stroke-width="3.2" d="m8 12 8 8 8-8"/>
    </symbol>

    <symbol id="icon-facebook" viewBox="0 0 32 32">
      <path fill="#e8e8e2" d="M19.52 4.64h.96v3.6h-1.2c-.48 0-.96 0-1.2.24s-.24.48-.24 1.04v1.28h2.64v3.04h-2.64v13.2h-4.08V13.76H11.6v-3.04h2.16V9.68c0-1.76.24-3.04.72-3.6.72-1.04 2.16-1.52 4.32-1.52.24.08.48.08.72.08z" opacity=".8" style="fill:var(--color1, #e8e8e2)"/>
    </symbol>

    <symbol id="icon-heroicons-solid_shopping-cart" viewBox="0 0 32 32">
      <path fill="#e8e8e2" d="M4.8 1.6a1.6 1.6 0 0 0 0 3.2h1.952l.488 1.955.016.067 2.173 8.688L8 16.937c-2.016 2.016-.589 5.462 2.262 5.462h13.737a1.6 1.6 0 0 0 0-3.2H10.261l1.6-1.6h10.537a1.602 1.602 0 0 0 1.431-.885l4.8-9.6c.122-.244.18-.515.167-.787s-.094-.537-.237-.769a1.597 1.597 0 0 0-1.36-.759H10.047L9.551 2.81a1.601 1.601 0 0 0-1.552-1.212h-3.2zm20.8 24.8a2.4 2.4 0 1 1-4.799 0 2.4 2.4 0 0 1 4.799 0zm-15.2 2.4a2.401 2.401 0 1 0-.001-4.802A2.401 2.401 0 0 0 10.4 28.8z" style="fill:var(--color1, #e8e8e2)"/>
    </symbol>

    <symbol id="icon-ic_baseline-search" viewBox="0 0 32 32">
      <path d="M20.667 18.667h-1.053l-.373-.36a8.625 8.625 0 0 0 2.093-5.64 8.668 8.668 0 0 0-5.35-8.007A8.66 8.66 0 0 0 6.54 6.539a8.67 8.67 0 0 0-1.879 9.444 8.671 8.671 0 0 0 8.007 5.35 8.63 8.63 0 0 0 5.64-2.093l.36.373v1.053l6.667 6.653 1.987-1.987-6.653-6.667zm-8 0c-3.32 0-6-2.68-6-6s2.68-6 6-6 6 2.68 6 6-2.68 6-6 6z"/>
    </symbol>

    <symbol id="icon-instagram" viewBox="0 0 32 32">
      <path fill="#e8e8e2" d="M28.718 10.756a9.264 9.264 0 0 0-.596-3.145 6.547 6.547 0 0 0-3.743-3.737 9.42 9.42 0 0 0-3.108-.596c-1.368-.061-1.801-.078-5.273-.078s-3.916 0-5.274.078a9.413 9.413 0 0 0-3.106.596 6.541 6.541 0 0 0-3.743 3.737 9.288 9.288 0 0 0-.596 3.101c-.061 1.367-.08 1.8-.08 5.265s0 3.909.08 5.265a9.335 9.335 0 0 0 .596 3.104 6.548 6.548 0 0 0 3.744 3.735 9.37 9.37 0 0 0 3.106.639c1.369.061 1.803.08 5.274.08s3.916 0 5.274-.08a9.362 9.362 0 0 0 3.108-.595 6.555 6.555 0 0 0 3.743-3.737 9.35 9.35 0 0 0 .596-3.104c.061-1.365.08-1.798.08-5.265-.003-3.466-.003-3.906-.082-5.264zM15.99 22.531c-3.631 0-6.572-2.936-6.572-6.561s2.941-6.561 6.572-6.561c3.628 0 6.572 2.936 6.572 6.561s-2.944 6.561-6.572 6.561zm6.834-11.835a1.53 1.53 0 1 1 0-3.06 1.53 1.53 0 1 1 0 3.06z" opacity=".8" style="fill:var(--color1, #e8e8e2)"/>
      <path fill="#e8e8e2" d="M15.992 19.976a4.004 4.004 0 1 0 0-8.009 4.004 4.004 0 0 0 0 8.009z" opacity=".8" style="fill:var(--color1, #e8e8e2)"/>
    </symbol>

    <symbol id="icon-ion_close-sharp" viewBox="0 0 32 32">
      <path d="M25 9.093 22.907 7 16 13.907 9.093 7 7 9.093 13.907 16 7 22.907 9.093 25 16 18.093 22.907 25 25 22.907 18.093 16 25 9.093z"/>
    </symbol>

    <symbol id="icon-left-arrow" viewBox="0 0 33 32">
      <path fill="#fafafa" d="M16.4 0c8.837 0 16 7.163 16 16s-7.163 16-16 16-16-7.163-16-16 7.163-16 16-16z" style="fill:var(--color2, #fafafa)"/>
      <path fill="none" stroke="#a3a3a3" stroke-linecap="round" stroke-linejoin="round" stroke-width="1.2" d="M18 19.2 14.8 16l3.2-3.2" style="stroke:var(--color3, #a3a3a3)"/>
    </symbol>

    <symbol id="icon-logo" viewBox="0 0 32 32">
      <path fill="#e8e8e2" d="M32 16c0 8.837-7.163 16-16 16S0 24.837 0 16 7.163 0 16 0s16 7.163 16 16z" style="fill:var(--color1, #e8e8e2)"/>
      <path fill="#6d8434" d="M16.93 8.89a3.363 3.363 0 0 0-1.136-1.067c-1.257-.721-2.876-.594-4.37.243C8.65 9.62 6.833 12.542 6.833 16c0 4.617 3.342 8.344 7.706 9.05.477.077.964.117 1.461.117a9.128 9.128 0 0 0 6.516-2.701 9.128 9.128 0 0 0 2.651-6.537c-.019-1.61-.665-3.586-1.686-5.165-1.017-1.573-2.58-3.007-4.523-2.988-.948.002-1.596.523-2.028 1.115V8.89zm5.546 3.454a3.944 3.944 0 0 0-1.052-.027l-.967-1.625-1.432.85.743 1.25a5.631 5.631 0 0 0-.887.521l-.015-.048c-.223-.675-.652-1.229-1.226-1.78l.003-.017c.058-.269.149-.617.287-.954.311-.763.672-1.072 1.033-1.072h.009c1.076-.012 2.197.814 3.109 2.226a8.6 8.6 0 0 1 .395.677l-.001.001zm-5.134 2.498a4.382 4.382 0 0 0-.833.098 3.115 3.115 0 0 0-.885-.954 2.683 2.683 0 0 0-2.535-.328 8.875 8.875 0 0 0-.27-.151l2.694-2.641-1.167-1.19-3.196 3.132c-.675-.196-1.306-.266-1.873-.188a7.253 7.253 0 0 1 2.963-3.102c1.137-.637 2.114-.602 2.726-.251.583.334 1.067 1.092.946 2.447l-.037.419.315.279c.685.606.97.998 1.093 1.372.087.262.115.58.059 1.056zM15 15.679c-.712.596-1.189 1.432-1.467 2.335l-2.478-2.721-1.233 1.123 3.407 3.74c-.004.993.123 2.01.308 2.929a7.46 7.46 0 0 1-5.038-7.086c0-.867.241-1.339.524-1.546.268-.197.855-.357 2.058.087.435.161.938.408 1.514.766l.418.26.43-.242c.519-.292.916-.188 1.22.025.133.093.248.21.335.329zm1.471 7.806 6.077-6.697-1.234-1.12-2.443 2.692.006-.845-1.667-.012-.019 2.708-2.069 2.281c-.157-.851-.25-1.765-.22-2.622.053-1.462.637-2.664 1.502-3.14.358-.198.991-.275 1.491-.187l.742.129.204-.724c.107-.377.389-.782.831-1.142a3.97 3.97 0 0 1 1.528-.763c.668-.163 1.237-.078 1.612.18.328.225.657.685.688 1.628v.015l.003.133a7.468 7.468 0 0 1-7.029 7.485z" style="fill:var(--color4, #6d8434)"/>
    </symbol>

    <symbol id="icon-mdi_leaf" viewBox="0 0 32 32">
      <path fill="#fafafa" d="M22.667 10.667c-12 2.667-14.8 10.893-17.573 17.787l2.52.88 1.267-3.067c.64.227 1.307.4 1.787.4C25.335 26.667 29.335 4 29.335 4c-1.333 2.667-10.667 3-17.333 4.333s-9.333 7-9.333 9.667 2.333 5 2.333 5c4.333-12.333 17.667-12.333 17.667-12.333z" style="fill:var(--color2, #fafafa)"/>
    </symbol>

    <symbol id="icon-right-arrow" viewBox="0 0 33 32">
      <path fill="#fafafa" d="M16.4 0c8.837 0 16 7.163 16 16s-7.163 16-16 16-16-7.163-16-16 7.163-16 16-16z" style="fill:var(--color2, #fafafa)"/>
      <path fill="none" stroke="#a3a3a3" stroke-linecap="round" stroke-linejoin="round" stroke-width="1.2" d="M14.8 12.8 18 16l-3.2 3.2" style="stroke:var(--color3, #a3a3a3)"/>
    </symbol>

    <symbol id="icon-youtube" viewBox="0 0 32 32">
      <path fill="#e8e8e2" d="M24.24 6c-1.36-.08-4.16-.16-8.4-.16h-.56c-4.08 0-6.8.08-8.16.24-1.84.16-3.12.64-3.84 1.28-.64.56-1.12 1.6-1.28 2.96-.08.88-.16 2.72-.16 5.52v.4c0 2.64.08 4.48.24 5.36.24 1.28.64 2.24 1.44 2.8.8.64 2.16 1.04 4.08 1.2 1.36.08 4.16.16 8.4.16h.56c4.08 0 6.8-.08 8.16-.24 1.84-.16 3.12-.64 3.84-1.28.64-.56 1.12-1.6 1.28-2.96.08-.88.16-2.72.16-5.52v-.4c0-2.64-.08-4.48-.24-5.36-.24-1.28-.64-2.24-1.44-2.8-.8-.64-2.16-1.04-4.08-1.2zm-3.12 9.84-8.8 5.28V10.56l8.8 5.28z" opacity=".8" style="fill:var(--color1, #e8e8e2)"/>
    </symbol>
		<symbol id="icon-basket" viewBox="0 0 32 32">
<path fill="#e8e8e2" style="fill: var(--color1, #e8e8e2)" d="M4.8 1.6c-0.424 0-0.831 0.169-1.131 0.469s-0.469 0.707-0.469 1.131c0 0.424 0.169 0.831 0.469 1.131s0.707 0.469 1.131 0.469h1.952l0.488 1.955c0.005 0.023 0.010 0.045 0.016 0.067l2.173 8.688-1.429 1.427c-2.016 2.016-0.589 5.462 2.262 5.462h13.737c0.424 0 0.831-0.169 1.131-0.469s0.469-0.707 0.469-1.131-0.169-0.831-0.469-1.131c-0.3-0.3-0.707-0.469-1.131-0.469h-13.738l1.6-1.6h10.537c0.297-0 0.588-0.083 0.841-0.239s0.457-0.38 0.59-0.646l4.8-9.6c0.122-0.244 0.18-0.515 0.167-0.787s-0.094-0.537-0.237-0.769c-0.143-0.232-0.343-0.423-0.581-0.556s-0.506-0.203-0.779-0.203h-17.152l-0.496-1.989c-0.087-0.346-0.286-0.653-0.568-0.873s-0.628-0.339-0.984-0.339h-3.2zM25.6 26.4c0 0.637-0.253 1.247-0.703 1.697s-1.060 0.703-1.697 0.703c-0.636 0-1.247-0.253-1.697-0.703s-0.703-1.060-0.703-1.697c0-0.636 0.253-1.247 0.703-1.697s1.060-0.703 1.697-0.703c0.637 0 1.247 0.253 1.697 0.703s0.703 1.061 0.703 1.697zM10.4 28.8c0.636 0 1.247-0.253 1.697-0.703s0.703-1.060 0.703-1.697c0-0.636-0.253-1.247-0.703-1.697s-1.061-0.703-1.697-0.703-1.247 0.253-1.697 0.703c-0.45 0.45-0.703 1.061-0.703 1.697s0.253 1.247 0.703 1.697 1.061 0.703 1.697 0.703z"></path>
</symbol>

<symbol id="icon-logo-header" viewBox="0 0 32 32">
<path fill="#6d8434" style="fill: var(--color1, #6d8434)" d="M11.2 12.8l3.2-3.1 1.2 1.2-2.7 2.6c0.1 0 0.2 0.1 0.3 0.2 1-0.4 1.9-0.1 2.5 0.3 0.4 0.3 0.7 0.6 0.9 1 0.3-0.1 0.6-0.1 0.8-0.1 0.1-0.5 0-0.8-0.1-1.1-0.1-0.4-0.4-0.8-1.1-1.4l-0.3-0.3v-0.4c0.1-1.4-0.4-2.1-0.9-2.4-0.6-0.4-1.6-0.4-2.7 0.3-1.3 0.7-2.3 1.8-3 3.1 0.5-0.2 1.2-0.1 1.9 0.1z"></path>
<path fill="#6d8434" style="fill: var(--color1, #6d8434)" d="M14.7 15.3c-0.3-0.2-0.7-0.3-1.2 0l-0.5 0.3-0.4-0.3c-0.6-0.4-1.1-0.6-1.5-0.8-1.2-0.4-1.8-0.3-2.1-0.1s-0.5 0.7-0.5 1.5c0 1.6 0.5 3.1 1.4 4.4s2.2 2.2 3.7 2.7c-0.2-0.9-0.3-1.9-0.3-2.9l-3.4-3.7 1.2-1.1 2.5 2.7c0.3-0.9 0.8-1.7 1.5-2.3-0.2-0.1-0.3-0.3-0.4-0.4z"></path>
<path fill="#6d8434" style="fill: var(--color1, #6d8434)" d="M18.9 13.3c0.3-0.2 0.6-0.4 0.9-0.5l-0.8-1.3 1.4-0.9 1 1.6c0.4 0 0.7 0 1.1 0v0c-0.1-0.2-0.3-0.5-0.4-0.7-0.9-1.4-2-2.2-3.1-2.2v0c-0.4 0-0.7 0.3-1 1.1-0.1 0.3-0.2 0.7-0.3 1v0c0.5 0.6 0.9 1.2 1.2 1.9 0 0 0 0 0 0z"></path>
<path fill="#6d8434" style="fill: var(--color1, #6d8434)" d="M16 0c-8.8 0-16 7.2-16 16s7.2 16 16 16 16-7.2 16-16-7.2-16-16-16zM24.5 19.5c-0.5 1.1-1.1 2.1-2 3s-1.9 1.5-3 2c-1.1 0.5-2.3 0.7-3.5 0.7-0.5 0-1 0-1.5-0.1-4.4-0.7-7.7-4.4-7.7-9.1 0-3.5 1.8-6.4 4.6-7.9 1.5-0.8 3.1-1 4.4-0.2 0.5 0.3 0.8 0.6 1.1 1.1v0c0.4-0.6 1.1-1.1 2-1.1 1.9 0 3.5 1.4 4.5 3s1.7 3.6 1.7 5.2c0.1 1-0.1 2.2-0.6 3.4z"></path>
<path fill="#6d8434" style="fill: var(--color1, #6d8434)" d="M22.8 14.2c-0.4-0.3-0.9-0.3-1.6-0.2-0.6 0.1-1.1 0.4-1.5 0.8s-0.7 0.8-0.8 1.1l-0.2 0.7-0.7-0.1c-0.5-0.1-1.1 0-1.5 0.2-0.9 0.5-1.4 1.7-1.5 3.1 0 0.9 0.1 1.8 0.2 2.6l2.1-2.3v-2.7h1.7v0.8l2.4-2.7 1.2 1.1-6.1 6.7c1.9-0.1 3.7-0.9 5-2.3s2-3.2 2-5.1v-0.1c0-0.9-0.4-1.4-0.7-1.6z"></path>
</symbol>

<symbol id="icon-organic-food" viewBox="0 0 32 32">
<path fill="#fdc152" style="fill: var(--color1, #fdc152)" d="M32 16c0 8.837-7.163 16-16 16s-16-7.163-16-16c0-8.837 7.163-16 16-16s16 7.163 16 16z"></path>
<path fill="#010101" style="fill: var(--color2, #010101)" d="M25.173 17.182c0.104-0.813 0.731-1.233 1.538-1.13s1.308 0.668 1.204 1.48c-0.104 0.813-0.731 1.233-1.538 1.13s-1.308-0.668-1.204-1.481zM25.61 17.238c-0.065 0.508 0.303 0.823 0.836 0.891 0.538 0.069 0.968-0.145 1.033-0.652s-0.297-0.823-0.836-0.891c-0.533-0.068-0.968 0.145-1.033 0.652z"></path>
<path fill="#010101" style="fill: var(--color2, #010101)" d="M27.137 20.516c-0.031 0.087-0.058 0.148-0.093 0.217l-0.478-0.169 0.003-0.010c0.255-0.458 0.065-0.966-0.461-1.152l-1.26-0.446 0.179-0.507 2.466 0.873-0.179 0.507-0.463-0.164-0.003 0.010c0.263 0.24 0.403 0.518 0.289 0.841z"></path>
<path fill="#010101" style="fill: var(--color2, #010101)" d="M25.819 22.819l-0.284 0.457-2.070-1.286c-0.639-0.397-0.682-0.96-0.29-1.59 0.397-0.639 0.951-0.784 1.355-0.599l-0.286 0.461c-0.223-0.078-0.468-0.013-0.692 0.348-0.238 0.383-0.185 0.687 0.215 0.935l0.27 0.167 0.005-0.009c-0.092-0.22-0.131-0.527 0.088-0.879 0.346-0.557 0.992-0.734 1.692-0.299 0.705 0.438 0.828 1.093 0.482 1.65-0.219 0.352-0.511 0.454-0.741 0.474l-0.005 0.009 0.261 0.162zM24.449 21.143c-0.23 0.37-0.124 0.743 0.346 1.035s0.851 0.221 1.081-0.149c0.248-0.4 0.075-0.791-0.338-1.048-0.409-0.254-0.84-0.238-1.089 0.162z"></path>
<path fill="#010101" style="fill: var(--color2, #010101)" d="M23.458 24.426c0.131 0.137 0.311 0.164 0.571-0.083 0.312-0.296 0.335-0.502 0.121-0.765l0.379-0.36c0.327 0.381 0.365 0.889-0.207 1.432-0.419 0.399-0.883 0.535-1.363 0.031l-0.857-0.902c-0.127-0.134-0.224-0.176-0.362-0.016l-0.176-0.186c0.057-0.118 0.113-0.185 0.188-0.256 0.208-0.198 0.375-0.215 0.588-0.065l0.007-0.007c-0.040-0.28 0.066-0.599 0.359-0.878 0.386-0.367 0.835-0.37 1.138-0.051 0.395 0.416 0.21 0.838-0.176 1.383-0.24 0.334-0.383 0.541-0.21 0.723zM22.914 22.76c-0.323 0.307-0.394 0.678-0.101 0.986l0.272 0.286c0.021-0.105 0.131-0.294 0.277-0.504 0.256-0.377 0.309-0.604 0.125-0.797-0.166-0.174-0.361-0.172-0.573 0.029z"></path>
<path fill="#010101" style="fill: var(--color2, #010101)" d="M21.582 26.621c-0.427 0.233-0.899 0.171-1.186-0.355l-0.867-1.586 0.476-0.26 0.793 1.451c0.169 0.31 0.408 0.436 0.731 0.26 0.364-0.199 0.477-0.547 0.29-0.888l-0.764-1.397 0.472-0.258 1.255 2.296-0.472 0.258-0.162-0.296-0.009 0.005c-0.023 0.246-0.163 0.556-0.558 0.772z"></path>
<path fill="#010101" style="fill: var(--color2, #010101)" d="M19.932 27.718c0.141-0.046 0.319 0.004 0.376 0.18s-0.059 0.315-0.2 0.361c-0.151 0.049-0.322 0.002-0.379-0.173s0.053-0.319 0.204-0.368zM20.049 27.217l-0.511 0.166-0.808-2.489 0.511-0.166 0.808 2.489z"></path>
<path fill="#010101" style="fill: var(--color2, #010101)" d="M16.83 26.935c0.054 0.261 0.263 0.56 0.72 0.502 0.523-0.067 0.689-0.542 0.627-1.030s-0.338-0.907-0.866-0.839c-0.457 0.058-0.584 0.395-0.568 0.687l-0.533 0.068c-0.036-0.604 0.37-1.105 1.045-1.192 0.777-0.099 1.351 0.395 1.455 1.208s-0.327 1.436-1.099 1.534c-0.675 0.086-1.172-0.289-1.314-0.87l0.533-0.068z"></path>
<path fill="#010101" style="fill: var(--color2, #010101)" d="M11.642 27.731c0.328 0.118 0.466 0.124 0.554-0.16l0.085-0.274-0.459-0.143 0.131-0.42 0.459 0.143 0.648-2.077 0.518 0.162-0.648 2.077 0.357 0.111-0.131 0.42-0.357-0.111-0.099 0.318c-0.165 0.528-0.448 0.643-0.858 0.515-0.127-0.040-0.235-0.089-0.331-0.141l0.131-0.42z"></path>
<path fill="#010101" style="fill: var(--color2, #010101)" d="M11.604 24.070c0.717 0.396 0.878 1.133 0.484 1.846s-1.103 0.971-1.82 0.575c-0.717-0.396-0.878-1.133-0.484-1.846s1.103-0.971 1.82-0.575zM11.391 24.455c-0.448-0.247-0.877-0.022-1.136 0.449-0.262 0.475-0.222 0.954 0.226 1.201s0.874 0.026 1.136-0.449c0.26-0.471 0.222-0.954-0.226-1.201z"></path>
<path fill="#010101" style="fill: var(--color2, #010101)" d="M9.701 22.674c0.594 0.564 0.562 1.318 0.001 1.909s-1.312 0.66-1.906 0.096c-0.594-0.564-0.562-1.318-0.001-1.909s1.312-0.66 1.906-0.096zM9.398 22.994c-0.371-0.353-0.843-0.243-1.213 0.147-0.374 0.393-0.456 0.866-0.085 1.219s0.839 0.247 1.213-0.147c0.37-0.39 0.456-0.866 0.085-1.219z"></path>
<path fill="#010101" style="fill: var(--color2, #010101)" d="M4.684 22.229l-0.277-0.461 3.138-1.885 0.277 0.461-0.259 0.156 0.005 0.009c0.225 0.026 0.528 0.143 0.736 0.49 0.345 0.575 0.153 1.27-0.584 1.713s-1.441 0.286-1.786-0.289c-0.208-0.347-0.178-0.664-0.078-0.885l-0.005-0.009-1.168 0.701zM7.88 21.145c-0.227-0.377-0.678-0.423-1.174-0.125-0.5 0.301-0.668 0.718-0.441 1.095 0.243 0.404 0.74 0.397 1.179 0.134s0.678-0.7 0.436-1.104z"></path>
<path fill="#010101" style="fill: var(--color2, #010101)" d="M6.849 16.375c0.032 0.819-0.517 1.337-1.331 1.368s-1.401-0.443-1.432-1.262c-0.032-0.819 0.517-1.337 1.331-1.368s1.401 0.443 1.432 1.261zM6.409 16.392c-0.020-0.512-0.434-0.762-0.971-0.741-0.542 0.021-0.931 0.302-0.911 0.814s0.429 0.762 0.971 0.741c0.537-0.021 0.931-0.302 0.911-0.814z"></path>
<path fill="#010101" style="fill: var(--color2, #010101)" d="M4.368 13.36c0.016-0.091 0.033-0.155 0.057-0.229l0.499 0.089-0.002 0.010c-0.177 0.494 0.093 0.963 0.642 1.062l1.315 0.235-0.095 0.529-2.575-0.461 0.095-0.529 0.484 0.087 0.002-0.010c-0.298-0.194-0.482-0.445-0.422-0.783z"></path>
<path fill="#010101" style="fill: var(--color2, #010101)" d="M5.287 10.885l0.206-0.497 2.252 0.933c0.695 0.288 0.828 0.836 0.544 1.522-0.288 0.695-0.811 0.928-1.239 0.811l0.208-0.501c0.232 0.041 0.464-0.063 0.626-0.455 0.172-0.416 0.071-0.707-0.364-0.888l-0.293-0.121-0.004 0.009c0.127 0.202 0.215 0.499 0.056 0.882-0.251 0.605-0.86 0.885-1.621 0.57-0.766-0.317-0.995-0.944-0.744-1.549 0.159-0.383 0.431-0.531 0.654-0.588l0.004-0.009-0.284-0.118zM6.91 12.317c0.167-0.402 0.002-0.753-0.509-0.965s-0.876-0.080-1.042 0.322c-0.18 0.435 0.054 0.793 0.503 0.979 0.445 0.184 0.868 0.099 1.048-0.336z"></path>
<path fill="#010101" style="fill: var(--color2, #010101)" d="M7.356 8.912c-0.151-0.115-0.333-0.112-0.55 0.173-0.261 0.342-0.251 0.549 0.003 0.774l-0.316 0.415c-0.384-0.324-0.502-0.82-0.024-1.447 0.351-0.46 0.786-0.669 1.34-0.247l0.99 0.754c0.147 0.112 0.249 0.138 0.36-0.041l0.204 0.155c-0.038 0.126-0.082 0.201-0.144 0.283-0.174 0.228-0.336 0.272-0.571 0.158l-0.006 0.008c0.084 0.27 0.030 0.602-0.215 0.924-0.323 0.424-0.766 0.498-1.116 0.232-0.456-0.347-0.341-0.794-0.046-1.393 0.184-0.368 0.292-0.595 0.093-0.747zM8.158 10.47c0.27-0.354 0.281-0.732-0.057-0.99l-0.314-0.239c-0.004 0.107-0.082 0.311-0.193 0.541-0.192 0.413-0.208 0.646 0.003 0.807 0.191 0.146 0.384 0.112 0.561-0.12z"></path>
<path fill="#010101" style="fill: var(--color2, #010101)" d="M8.82 6.462c0.383-0.3 0.859-0.316 1.228 0.155l1.116 1.422-0.427 0.335-1.021-1.301c-0.218-0.278-0.474-0.364-0.764-0.136-0.326 0.256-0.381 0.618-0.141 0.924l0.983 1.253-0.423 0.332-1.615-2.058 0.423-0.332 0.209 0.266 0.008-0.006c-0.018-0.246 0.069-0.575 0.424-0.853z"></path>
<path fill="#010101" style="fill: var(--color2, #010101)" d="M10.294 5.089c-0.132 0.068-0.315 0.048-0.4-0.116s0.007-0.321 0.139-0.389c0.141-0.073 0.318-0.055 0.402 0.109s0 0.323-0.141 0.396zM10.26 5.603l0.477-0.247 1.204 2.323-0.477 0.247-1.204-2.323z"></path>
<path fill="#010101" style="fill: var(--color2, #010101)" d="M13.485 5.351c-0.096-0.249-0.35-0.51-0.792-0.377-0.505 0.151-0.592 0.648-0.451 1.118s0.481 0.839 0.991 0.686c0.441-0.132 0.512-0.485 0.448-0.77l0.515-0.154c0.134 0.59-0.184 1.151-0.837 1.346-0.75 0.225-1.398-0.169-1.633-0.954s0.089-1.47 0.834-1.693c0.652-0.196 1.204 0.094 1.438 0.643l-0.515 0.154z"></path>
<path fill="#010101" style="fill: var(--color2, #010101)" d="M18.451 3.719c-0.343-0.063-0.48-0.046-0.521 0.248l-0.040 0.284 0.477 0.067-0.061 0.436-0.477-0.067-0.301 2.155-0.538-0.075 0.301-2.155-0.37-0.052 0.061-0.436 0.37 0.052 0.046-0.33c0.076-0.548 0.337-0.708 0.763-0.648 0.132 0.018 0.246 0.050 0.35 0.085l-0.061 0.436z"></path>
<path fill="#010101" style="fill: var(--color2, #010101)" d="M19.096 7.321c-0.772-0.273-1.051-0.975-0.779-1.742s0.929-1.137 1.702-0.864c0.772 0.273 1.051 0.975 0.779 1.742s-0.929 1.137-1.702 0.864zM19.243 6.906c0.483 0.171 0.869-0.122 1.048-0.628 0.181-0.512 0.063-0.977-0.419-1.148s-0.867 0.117-1.048 0.628c-0.179 0.507-0.063 0.977 0.419 1.148z"></path>
<path fill="#010101" style="fill: var(--color2, #010101)" d="M21.17 8.361c-0.678-0.46-0.77-1.209-0.313-1.883s1.187-0.865 1.865-0.405c0.678 0.46 0.77 1.209 0.313 1.883s-1.187 0.865-1.865 0.405zM21.417 7.997c0.424 0.287 0.871 0.102 1.173-0.343 0.305-0.449 0.308-0.929-0.115-1.216s-0.868-0.106-1.173 0.343c-0.302 0.445-0.308 0.929 0.115 1.216z"></path>
<path fill="#010101" style="fill: var(--color2, #010101)" d="M26.248 8.030l0.347 0.411-2.796 2.363-0.347-0.411 0.231-0.195-0.007-0.008c-0.226 0.010-0.544-0.056-0.805-0.365-0.433-0.512-0.355-1.229 0.302-1.784s1.376-0.513 1.809-0.001c0.261 0.309 0.282 0.627 0.218 0.861l0.007 0.008 1.040-0.879zM23.267 9.612c0.284 0.336 0.737 0.309 1.179-0.065 0.446-0.377 0.544-0.815 0.26-1.152-0.304-0.36-0.794-0.274-1.186 0.057s-0.558 0.8-0.253 1.16z"></path>
<path fill="#010101" style="fill: var(--color2, #010101)" d="M17.6 14.72c-2.88 0.64-3.552 2.614-4.218 4.269l0.605 0.211 0.304-0.736c0.154 0.054 0.314 0.096 0.429 0.096 3.52 0 4.48-5.44 4.48-5.44-0.32 0.64-2.56 0.72-4.16 1.040s-2.24 1.68-2.24 2.32c0 0.64 0.56 1.2 0.56 1.2 1.040-2.96 4.24-2.96 4.24-2.96z"></path>
</symbol>

<symbol id="icon-discount-1" viewBox="0 0 32 32">
<path fill="#6d8434" style="fill: var(--color1, #6d8434)" d="M32 16c0 8.837-7.163 16-16 16s-16-7.163-16-16c0-8.837 7.163-16 16-16s16 7.163 16 16z"></path>
<path fill="#fafafa" style="fill: var(--color2, #fafafa)" d="M26.947 20.862l-0.233 0.63-4.294-1.582 0.233-0.63 0.354 0.131 0.004-0.012c-0.15-0.239-0.274-0.626-0.099-1.1 0.291-0.787 1.118-1.143 2.127-0.771s1.406 1.18 1.116 1.966c-0.175 0.474-0.508 0.693-0.802 0.769l-0.004 0.012 1.597 0.589zM23.39 18.597c-0.191 0.516 0.118 0.991 0.797 1.242 0.685 0.252 1.222 0.089 1.413-0.427 0.204-0.553-0.192-1.033-0.793-1.254s-1.213-0.113-1.418 0.439zM25.093 22.529c0.11-0.15 0.326-0.229 0.513-0.093s0.171 0.363 0.061 0.512c-0.117 0.16-0.325 0.238-0.511 0.102s-0.18-0.361-0.062-0.521zM24.845 21.936l-0.397 0.542-2.641-1.93 0.397-0.542 2.641 1.93zM21.828 23.303c-0.554 0.274-1.144 0.585-1.641-0.017-0.399-0.483-0.233-1.126 0.38-1.63 0.815-0.671 1.48-0.58 1.945-0.068l-0.504 0.415c-0.249-0.251-0.559-0.385-1.093 0.054-0.361 0.297-0.367 0.601-0.237 0.758 0.261 0.316 0.583 0.092 1.027-0.124 0.478-0.236 1.086-0.604 1.559-0.032 0.342 0.414 0.25 1.046-0.382 1.566-0.687 0.565-1.319 0.464-1.716 0.053l0.504-0.415c0.198 0.169 0.463 0.29 0.869-0.044 0.311-0.257 0.381-0.513 0.235-0.691-0.212-0.257-0.51-0.044-0.945 0.173zM18.35 25.162c0.132 0.307 0.462 0.62 1.007 0.435 0.624-0.212 0.709-0.836 0.51-1.417s-0.641-1.026-1.271-0.812c-0.546 0.185-0.617 0.629-0.524 0.982l-0.636 0.216c-0.196-0.731 0.176-1.445 0.982-1.719 0.927-0.315 1.755 0.148 2.085 1.117s-0.042 1.839-0.963 2.152c-0.806 0.274-1.509-0.062-1.828-0.738l0.636-0.216zM15.606 23.245c1.022 0.062 1.598 0.81 1.537 1.825s-0.724 1.687-1.747 1.625-1.598-0.81-1.537-1.825 0.724-1.687 1.747-1.625zM15.573 23.795c-0.639-0.039-1.002 0.445-1.042 1.116-0.041 0.677 0.261 1.196 0.9 1.235s1.001-0.439 1.042-1.116c0.041-0.671-0.261-1.196-0.9-1.235zM10.771 25.275l-0.605-0.293 1.431-2.941 0.605 0.293-0.185 0.38 0.012 0.006c0.268-0.155 0.685-0.237 1.191 0.009 0.547 0.266 0.825 0.791 0.497 1.465l-0.988 2.031-0.61-0.296 0.905-1.859c0.193-0.397 0.149-0.731-0.265-0.932-0.467-0.226-0.903-0.090-1.116 0.348l-0.871 1.79zM7.833 22.957c-0.406-0.453-0.463-1.045 0.095-1.543l1.685-1.505 0.453 0.505-1.542 1.377c-0.33 0.294-0.415 0.62-0.108 0.963 0.346 0.386 0.802 0.425 1.165 0.101l1.485-1.325 0.449 0.5-2.439 2.178-0.449-0.5 0.315-0.281-0.009-0.010c-0.306 0.042-0.724-0.041-1.1-0.46zM6.447 19.376l0.253 0.56 1.617-0.727c0.339-0.153 0.306-0.334 0.103-0.72l0.502-0.226c0.090 0.116 0.169 0.247 0.232 0.387l0.005 0.012c0.221 0.49 0.121 0.858-0.509 1.142l-1.669 0.751 0.195 0.431-0.502 0.226-0.195-0.431-0.94 0.423-0.279-0.618 0.94-0.423-0.253-0.56 0.502-0.226zM4.494 12.647l0.146-0.656 4.467 0.994-0.146 0.656-0.369-0.082-0.003 0.012c0.181 0.217 0.355 0.584 0.245 1.077-0.182 0.818-0.955 1.283-2.004 1.049s-1.552-0.981-1.37-1.799c0.11-0.493 0.411-0.755 0.692-0.869l0.003-0.012-1.662-0.37zM8.322 14.417c0.119-0.537-0.25-0.967-0.956-1.124-0.712-0.158-1.223 0.075-1.343 0.613-0.128 0.575 0.329 0.997 0.954 1.137s1.218-0.051 1.346-0.625zM6.102 10.748c-0.089 0.163-0.293 0.271-0.495 0.161s-0.218-0.337-0.129-0.5c0.095-0.174 0.29-0.279 0.493-0.17s0.226 0.334 0.132 0.508zM6.427 11.303l0.321-0.59 2.875 1.559-0.321 0.59-2.875-1.559zM9.241 9.534c0.514-0.344 1.057-0.73 1.629-0.198 0.459 0.427 0.379 1.086-0.163 1.666-0.721 0.772-1.391 0.769-1.919 0.322l0.445-0.477c0.279 0.216 0.605 0.309 1.076-0.197 0.319-0.341 0.285-0.644 0.135-0.783-0.3-0.279-0.59-0.015-1.002 0.258-0.443 0.297-0.998 0.741-1.542 0.236-0.394-0.366-0.385-1.004 0.174-1.603 0.607-0.651 1.246-0.633 1.694-0.277l-0.445 0.477c-0.218-0.141-0.498-0.227-0.855 0.157-0.275 0.295-0.311 0.558-0.142 0.715 0.244 0.227 0.511-0.023 0.914-0.295z"></path>
<path fill="#fafafa" style="fill: var(--color2, #fafafa)" d="M12.396 7.25c-0.172-0.286-0.542-0.552-1.057-0.295-0.59 0.294-0.589 0.924-0.314 1.473s0.774 0.93 1.37 0.632c0.515-0.257 0.526-0.707 0.386-1.044l0.601-0.3c0.293 0.698 0.021 1.455-0.74 1.836-0.876 0.437-1.758 0.091-2.218-0.824s-0.208-1.828 0.662-2.262c0.762-0.38 1.503-0.143 1.911 0.483l-0.601 0.3zM15.372 8.765c-1.021 0.074-1.693-0.589-1.767-1.604s0.492-1.769 1.514-1.843 1.693 0.589 1.767 1.604-0.492 1.769-1.514 1.843zM15.331 8.217c0.638-0.046 0.933-0.575 0.884-1.245-0.050-0.676-0.419-1.15-1.057-1.103s-0.933 0.569-0.884 1.245c0.050 0.67 0.419 1.15 1.057 1.103zM19.919 6.106l0.638 0.211-1.027 3.105-0.638-0.211 0.133-0.401-0.012-0.004c-0.244 0.189-0.647 0.326-1.182 0.149-0.578-0.19-0.923-0.675-0.688-1.386l0.709-2.145 0.644 0.213-0.649 1.963c-0.139 0.419-0.051 0.745 0.387 0.889 0.492 0.162 0.907-0.031 1.059-0.493l0.625-1.89zM23.143 8.004c0.462 0.396 0.597 0.975 0.108 1.542l-1.473 1.713-0.515-0.442 1.348-1.567c0.288-0.335 0.331-0.669-0.019-0.969-0.394-0.338-0.851-0.316-1.168 0.053l-1.298 1.509-0.51-0.437 2.132-2.479 0.51 0.437-0.276 0.32 0.010 0.009c0.298-0.082 0.723-0.055 1.15 0.311zM24.983 11.342l-0.326-0.521-1.504 0.939c-0.315 0.196-0.258 0.372-0.005 0.727l-0.467 0.291c-0.108-0.107-0.203-0.226-0.283-0.355l-0.005-0.008c-0.285-0.455-0.236-0.834 0.351-1.199l1.553-0.969-0.252-0.401 0.467-0.291 0.252 0.401 0.874-0.546 0.36 0.575-0.874 0.546 0.326 0.521-0.467 0.291zM17.556 14.756c-2.8 0.622-3.453 2.542-4.1 4.15l0.588 0.205 0.295-0.716c0.149 0.053 0.305 0.093 0.417 0.093 3.422 0 4.356-5.289 4.356-5.289-0.311 0.622-2.489 0.7-4.044 1.011s-2.178 1.634-2.178 2.255 0.545 1.167 0.545 1.167c1.011-2.878 4.122-2.878 4.122-2.878z"></path>
</symbol>

  </defs>
</svg>
