<svg xmlns="http://www.w3.org/2000/svg" aria-hidden="true" style="position:absolute;width:0;height:0;overflow:hidden">
  <defs>

    <symbol id="icon-check" viewBox="0 0 32 32">
      <path fill="none" stroke="#e8e8e2" stroke-linecap="round" stroke-linejoin="round" stroke-width="3.556" d="M26.667 8 12 22.667 5.333 16" style="stroke:var(--color1, #e8e8e2)"/>
    </symbol>

    <symbol id="icon-down-arrow" viewBox="0 0 32 32">
      <path stroke-linecap="round" stroke-linejoin="round" stroke-width="3.2" d="m8 12 8 8 8-8"/>
    </symbol>

    <symbol id="icon-facebook" viewBox="0 0 32 32">
      <path fill="#e8e8e2" d="M19.52 4.64h.96v3.6h-1.2c-.48 0-.96 0-1.2.24s-.24.48-.24 1.04v1.28h2.64v3.04h-2.64v13.2h-4.08V13.76H11.6v-3.04h2.16V9.68c0-1.76.24-3.04.72-3.6.72-1.04 2.16-1.52 4.32-1.52.24.08.48.08.72.08z" opacity=".8" style="fill:var(--color1, #e8e8e2)"/>
    </symbol>

    <symbol id="icon-heroicons-solid_shopping-cart" viewBox="0 0 32 32">
      <path fill="#e8e8e2" d="M4.8 1.6a1.6 1.6 0 0 0 0 3.2h1.952l.488 1.955.016.067 2.173 8.688L8 16.937c-2.016 2.016-.589 5.462 2.262 5.462h13.737a1.6 1.6 0 0 0 0-3.2H10.261l1.6-1.6h10.537a1.602 1.602 0 0 0 1.431-.885l4.8-9.6c.122-.244.18-.515.167-.787s-.094-.537-.237-.769a1.597 1.597 0 0 0-1.36-.759H10.047L9.551 2.81a1.601 1.601 0 0 0-1.552-1.212h-3.2zm20.8 24.8a2.4 2.4 0 1 1-4.799 0 2.4 2.4 0 0 1 4.799 0zm-15.2 2.4a2.401 2.401 0 1 0-.001-4.802A2.401 2.401 0 0 0 10.4 28.8z" style="fill:var(--color1, #e8e8e2)"/>
    </symbol>

    <symbol id="icon-ic_baseline-search" viewBox="0 0 32 32">
      <path d="M20.667 18.667h-1.053l-.373-.36a8.625 8.625 0 0 0 2.093-5.64 8.668 8.668 0 0 0-5.35-8.007A8.66 8.66 0 0 0 6.54 6.539a8.67 8.67 0 0 0-1.879 9.444 8.671 8.671 0 0 0 8.007 5.35 8.63 8.63 0 0 0 5.64-2.093l.36.373v1.053l6.667 6.653 1.987-1.987-6.653-6.667zm-8 0c-3.32 0-6-2.68-6-6s2.68-6 6-6 6 2.68 6 6-2.68 6-6 6z"/>
    </symbol>

    <symbol id="icon-instagram" viewBox="0 0 32 32">
      <path fill="#e8e8e2" d="M28.718 10.756a9.264 9.264 0 0 0-.596-3.145 6.547 6.547 0 0 0-3.743-3.737 9.42 9.42 0 0 0-3.108-.596c-1.368-.061-1.801-.078-5.273-.078s-3.916 0-5.274.078a9.413 9.413 0 0 0-3.106.596 6.541 6.541 0 0 0-3.743 3.737 9.288 9.288 0 0 0-.596 3.101c-.061 1.367-.08 1.8-.08 5.265s0 3.909.08 5.265a9.335 9.335 0 0 0 .596 3.104 6.548 6.548 0 0 0 3.744 3.735 9.37 9.37 0 0 0 3.106.639c1.369.061 1.803.08 5.274.08s3.916 0 5.274-.08a9.362 9.362 0 0 0 3.108-.595 6.555 6.555 0 0 0 3.743-3.737 9.35 9.35 0 0 0 .596-3.104c.061-1.365.08-1.798.08-5.265-.003-3.466-.003-3.906-.082-5.264zM15.99 22.531c-3.631 0-6.572-2.936-6.572-6.561s2.941-6.561 6.572-6.561c3.628 0 6.572 2.936 6.572 6.561s-2.944 6.561-6.572 6.561zm6.834-11.835a1.53 1.53 0 1 1 0-3.06 1.53 1.53 0 1 1 0 3.06z" opacity=".8" style="fill:var(--color1, #e8e8e2)"/>
      <path fill="#e8e8e2" d="M15.992 19.976a4.004 4.004 0 1 0 0-8.009 4.004 4.004 0 0 0 0 8.009z" opacity=".8" style="fill:var(--color1, #e8e8e2)"/>
    </symbol>

    <symbol id="icon-ion_close-sharp" viewBox="0 0 32 32">
      <path d="M25 9.093 22.907 7 16 13.907 9.093 7 7 9.093 13.907 16 7 22.907 9.093 25 16 18.093 22.907 25 25 22.907 18.093 16 25 9.093z"/>
    </symbol>

    <symbol id="icon-left-arrow" viewBox="0 0 33 32">
      <path fill="#fafafa" d="M16.4 0c8.837 0 16 7.163 16 16s-7.163 16-16 16-16-7.163-16-16 7.163-16 16-16z" style="fill:var(--color2, #fafafa)"/>
      <path fill="none" stroke="#a3a3a3" stroke-linecap="round" stroke-linejoin="round" stroke-width="1.2" d="M18 19.2 14.8 16l3.2-3.2" style="stroke:var(--color3, #a3a3a3)"/>
    </symbol>

    <symbol id="icon-logo" viewBox="0 0 32 32">
      <path fill="#e8e8e2" d="M32 16c0 8.837-7.163 16-16 16S0 24.837 0 16 7.163 0 16 0s16 7.163 16 16z" style="fill:var(--color1, #e8e8e2)"/>
      <path fill="#6d8434" d="M16.93 8.89a3.363 3.363 0 0 0-1.136-1.067c-1.257-.721-2.876-.594-4.37.243C8.65 9.62 6.833 12.542 6.833 16c0 4.617 3.342 8.344 7.706 9.05.477.077.964.117 1.461.117a9.128 9.128 0 0 0 6.516-2.701 9.128 9.128 0 0 0 2.651-6.537c-.019-1.61-.665-3.586-1.686-5.165-1.017-1.573-2.58-3.007-4.523-2.988-.948.002-1.596.523-2.028 1.115V8.89zm5.546 3.454a3.944 3.944 0 0 0-1.052-.027l-.967-1.625-1.432.85.743 1.25a5.631 5.631 0 0 0-.887.521l-.015-.048c-.223-.675-.652-1.229-1.226-1.78l.003-.017c.058-.269.149-.617.287-.954.311-.763.672-1.072 1.033-1.072h.009c1.076-.012 2.197.814 3.109 2.226a8.6 8.6 0 0 1 .395.677l-.001.001zm-5.134 2.498a4.382 4.382 0 0 0-.833.098 3.115 3.115 0 0 0-.885-.954 2.683 2.683 0 0 0-2.535-.328 8.875 8.875 0 0 0-.27-.151l2.694-2.641-1.167-1.19-3.196 3.132c-.675-.196-1.306-.266-1.873-.188a7.253 7.253 0 0 1 2.963-3.102c1.137-.637 2.114-.602 2.726-.251.583.334 1.067 1.092.946 2.447l-.037.419.315.279c.685.606.97.998 1.093 1.372.087.262.115.58.059 1.056zM15 15.679c-.712.596-1.189 1.432-1.467 2.335l-2.478-2.721-1.233 1.123 3.407 3.74c-.004.993.123 2.01.308 2.929a7.46 7.46 0 0 1-5.038-7.086c0-.867.241-1.339.524-1.546.268-.197.855-.357 2.058.087.435.161.938.408 1.514.766l.418.26.43-.242c.519-.292.916-.188 1.22.025.133.093.248.21.335.329zm1.471 7.806 6.077-6.697-1.234-1.12-2.443 2.692.006-.845-1.667-.012-.019 2.708-2.069 2.281c-.157-.851-.25-1.765-.22-2.622.053-1.462.637-2.664 1.502-3.14.358-.198.991-.275 1.491-.187l.742.129.204-.724c.107-.377.389-.782.831-1.142a3.97 3.97 0 0 1 1.528-.763c.668-.163 1.237-.078 1.612.18.328.225.657.685.688 1.628v.015l.003.133a7.468 7.468 0 0 1-7.029 7.485z" style="fill:var(--color4, #6d8434)"/>
    </symbol>

    <symbol id="icon-mdi_leaf" viewBox="0 0 32 32">
      <path fill="#fafafa" d="M22.667 10.667c-12 2.667-14.8 10.893-17.573 17.787l2.52.88 1.267-3.067c.64.227 1.307.4 1.787.4C25.335 26.667 29.335 4 29.335 4c-1.333 2.667-10.667 3-17.333 4.333s-9.333 7-9.333 9.667 2.333 5 2.333 5c4.333-12.333 17.667-12.333 17.667-12.333z" style="fill:var(--color2, #fafafa)"/>
    </symbol>

    <symbol id="icon-right-arrow" viewBox="0 0 33 32">
      <path fill="#fafafa" d="M16.4 0c8.837 0 16 7.163 16 16s-7.163 16-16 16-16-7.163-16-16 7.163-16 16-16z" style="fill:var(--color2, #fafafa)"/>
      <path fill="none" stroke="#a3a3a3" stroke-linecap="round" stroke-linejoin="round" stroke-width="1.2" d="M14.8 12.8 18 16l-3.2 3.2" style="stroke:var(--color3, #a3a3a3)"/>
    </symbol>

    <symbol id="icon-youtube" viewBox="0 0 32 32">
      <path fill="#e8e8e2" d="M24.24 6c-1.36-.08-4.16-.16-8.4-.16h-.56c-4.08 0-6.8.08-8.16.24-1.84.16-3.12.64-3.84 1.28-.64.56-1.12 1.6-1.28 2.96-.08.88-.16 2.72-.16 5.52v.4c0 2.64.08 4.48.24 5.36.24 1.28.64 2.24 1.44 2.8.8.64 2.16 1.04 4.08 1.2 1.36.08 4.16.16 8.4.16h.56c4.08 0 6.8-.08 8.16-.24 1.84-.16 3.12-.64 3.84-1.28.64-.56 1.12-1.6 1.28-2.96.08-.88.16-2.72.16-5.52v-.4c0-2.64-.08-4.48-.24-5.36-.24-1.28-.64-2.24-1.44-2.8-.8-.64-2.16-1.04-4.08-1.2zm-3.12 9.84-8.8 5.28V10.56l8.8 5.28z" opacity=".8" style="fill:var(--color1, #e8e8e2)"/>
    </symbol>

    <symbol id="arrow-down" xmlns="http://www.w3.org/2000/svg" width="20" height="20" viewBox="0 0 20 20" fill="none">
      <path d="M5 7.5L10 12.5L15 7.5" stroke="#010101" stroke-width="2" stroke-linecap="round" stroke-linejoin="round"/>
    </symbol>
		
  </defs>
</svg>
